PathFileType	4	(x/y/z)	S09_PSF_T14
DataRate	CameraRate	NumFrames	NumMarkers	Units	OrigDataRate	OrigDataStartFrame	OrigNumFrames
240	240	10	51	mm	240	112	444
Frame#	Time	Sternum			R.Acromium			L.Acromium			Top.Head			R.ASIS			L.ASIS			R.PSIS			L.PSIS			R.Great.Tro			L.Great.Tro			R.Iliac.Crest			L.Iliac.Crest			V.Sacral			R.Thigh.Upper.Post			R.Thigh.Lower.Ant			R.Thigh.Lower.Post			R.Thigh.Upper.Ant			R.Knee.Lat			R.Knee.Med			R.Shank.Upper.Post			R.Shank.Lower.Ant			R.Shank.Lower.Post			R.Shank.Upper.Ant			R.Ankle.Lat			R.Ankle.Med			R.Heel.Upper			R.Heel.Med			R.Heel.Lat			R.Toe.Lat			R.Toe.Med			R.Toe.Tip			L.Thigh.Upper.Post			L.Thigh.Lower.Ant			L.Thigh.Lower.Post			L.Thigh.Upper.Ant			L.Knee.Lat			L.Knee.Med			L.Shank.Upper.Post			L.Shank.Lower.Ant			L.Shank.Lower.Post			L.Shank.Upper.Ant			L.Ankle.Lat			L.Ankle.Med			L.Heel.Upper			L.Heel.Med			L.Heel.Lat			L.Toe.Lat			L.Toe.Med			L.Toe.Tip			Cervical.Spine			Back			
		X1	Y1	Z1	X2	Y2	Z2	X3	Y3	Z3	X4	Y4	Z4	X5	Y5	Z5	X6	Y6	Z6	X7	Y7	Z7	X8	Y8	Z8	X9	Y9	Z9	X10	Y10	Z10	X11	Y11	Z11	X12	Y12	Z12	X13	Y13	Z13	X14	Y14	Z14	X15	Y15	Z15	X16	Y16	Z16	X17	Y17	Z17	X18	Y18	Z18	X19	Y19	Z19	X20	Y20	Z20	X21	Y21	Z21	X22	Y22	Z22	X23	Y23	Z23	X24	Y24	Z24	X25	Y25	Z25	X26	Y26	Z26	X27	Y27	Z27	X28	Y28	Z28	X29	Y29	Z29	X30	Y30	Z30	X31	Y31	Z31	X32	Y32	Z32	X33	Y33	Z33	X34	Y34	Z34	X35	Y35	Z35	X36	Y36	Z36	X37	Y37	Z37	X38	Y38	Z38	X39	Y39	Z39	X40	Y40	Z40	X41	Y41	Z41	X42	Y42	Z42	X43	Y43	Z43	X44	Y44	Z44	X45	Y45	Z45	X46	Y46	Z46	X47	Y47	Z47	X48	Y48	Z48	X49	Y49	Z49	X50	Y50	Z50	X51	Y51	Z51	

112	0.4625	NaN	NaN	NaN	-1120.2	1427.4	477.27	-1118.2	1435.8	161.97	-1105.1	1738.2	321.8	-1020.4	1027	420.52	-1040	1024	175.54	-1254.6	1033.6	362.78	-1250.7	1041.8	273.32	-1085.4	935.69	501.01	-1120.3	933.39	114.89	-1110.7	1097.6	471.74	-1152.3	1116.7	151.03	-1267.6	1001.4	312.68	-1004.1	697.55	489	-899.89	628.04	453.19	-976.14	609.36	467.96	-934.08	710.36	476.97	-899.81	548.84	453.39	-890.41	537.07	329.17	-935.02	365.59	457.46	-854.27	323.2	463.2	-917.16	291.42	451.04	-877.22	393.6	470.37	-842.02	113.89	448.29	-809.57	142.04	371.78	-880.39	75.032	382.65	-852.09	51.248	358.74	-875.23	45.447	418.99	-739.15	84.444	508.07	-674.21	113.36	419.66	-650.36	142.65	473.05	-1213.2	688.6	182.86	-1145	580.44	180.43	-1209.6	600.15	203.59	-1147.5	667.2	155.15	-1172.1	504.36	196.78	-1141.1	519.2	326.64	-1242.4	380	192.43	-1197.1	280.65	210.22	-1252.9	306.24	201.98	-1183.5	356.48	198.55	-1277	108.65	240.5	-1259.9	101.41	332.69	-1350.1	77.211	295.67	-1339.3	51.667	325.15	-1352.6	51.609	265.35	-1183.1	43.609	201.36	-1140.4	37.255	308.24	-1091.8	53.081	246.47	-1202.5	1484.1	331.12	-1251.5	1217.3	309.92
113	0.46667	NaN	NaN	NaN	-1114.7	1426.7	477.4	-1112.5	1435	162.14	-1099.8	1737.5	322.03	-1014.7	1026.1	420.71	-1034.4	1023.4	175.72	-1248.9	1033	363.19	-1245.1	1041.4	273.75	-1079.9	934.62	501.04	-1115.3	933.02	114.99	-1104.9	1096.6	472.1	-1146.9	1116.2	151.38	-1262	1000.9	313.07	-999.9	696.05	488.85	-895.91	626.11	453.2	-972.3	607.78	467.65	-929.74	708.47	476.99	-895.59	547.7	453.15	-886.45	535.76	328.44	-926.2	364.11	457.53	-844.45	323.64	462.79	-906.58	290.34	451.2	-869.03	393.5	469.92	-826.59	114.31	448.41	-795.54	143.12	371.66	-864.63	74.227	383.26	-835.87	51.117	359.14	-858.37	44.826	419.56	-722.5	87.656	507.37	-659.15	118.08	418.37	-635.69	148.24	471.44	-1209.6	688.9	183.39	-1142.1	580.31	180.47	-1206.8	600.52	203.94	-1144.1	667.1	155.3	-1169.5	504.33	196.82	-1137.9	518.88	326.55	-1240.6	380.27	192.61	-1195.7	280.68	210.2	-1251.4	306.66	202.08	-1181.7	356.44	198.51	-1276.6	109	240.64	-1259.5	101.69	332.78	-1349.9	77.452	295.89	-1339.2	51.869	325.31	-1352.5	51.938	265.52	-1183	43.583	201.4	-1140.2	37.117	308.21	-1091.5	52.653	246.41	-1196.9	1483.4	331.28	-1246	1216.5	310.13
114	0.47083	NaN	NaN	NaN	-1109.2	1425.9	477.55	-1106.9	1434.3	162.32	-1094.4	1736.8	322.26	-1008.9	1025.2	420.92	-1028.9	1022.8	175.92	-1243.1	1032.3	363.6	-1239.5	1040.9	274.18	-1074.4	933.55	501.08	-1110.3	932.64	115.1	-1099	1095.7	472.47	-1141.4	1115.7	151.74	-1256.4	1000.4	313.47	-995.59	694.56	488.75	-891.89	624.18	453.22	-968.42	606.21	467.37	-925.34	706.59	477.02	-891.32	546.59	452.91	-882.58	534.43	327.7	-917.44	362.75	457.64	-834.77	324.15	462.34	-896.14	289.4	451.4	-860.91	393.45	469.44	-811.49	114.88	448.47	-781.88	144.31	371.46	-849.28	73.624	383.85	-820.1	51.181	359.5	-841.91	44.435	420.1	-706.28	90.975	506.55	-644.56	122.81	416.94	-621.46	153.81	469.66	-1206	689.19	183.93	-1139.1	580.17	180.5	-1203.9	600.87	204.29	-1140.7	666.98	155.45	-1166.9	504.29	196.87	-1134.6	518.52	326.46	-1238.6	380.56	192.77	-1194.3	280.7	210.18	-1249.8	307.09	202.17	-1179.9	356.39	198.47	-1276.2	109.36	240.77	-1259	101.99	332.86	-1349.7	77.72	296.09	-1339	52.1	325.46	-1352.4	52.284	265.68	-1182.9	43.557	201.44	-1140.1	36.991	308.18	-1091.3	52.232	246.33	-1191.3	1482.6	331.46	-1240.5	1215.8	310.36
115	0.475	NaN	NaN	NaN	-1103.7	1425.2	477.72	-1101.3	1433.5	162.51	-1089.1	1736	322.49	-1003	1024.3	421.13	-1023.3	1022.2	176.13	-1237.3	1031.6	364.02	-1233.9	1040.5	274.62	-1068.9	932.49	501.15	-1105.2	932.25	115.21	-1093.2	1094.7	472.85	-1136	1115.1	152.11	-1250.8	999.86	313.86	-991.21	693.1	488.69	-887.81	622.28	453.23	-964.47	604.67	467.1	-920.87	704.73	477.08	-886.99	545.51	452.67	-878.77	533.1	326.95	-908.76	361.5	457.79	-825.24	324.7	461.86	-885.85	288.57	451.61	-852.85	393.44	468.95	-796.77	115.57	448.47	-768.64	145.58	371.2	-834.37	73.2	384.38	-804.79	51.411	359.8	-825.91	44.246	420.58	-690.52	94.36	505.62	-630.47	127.52	415.38	-607.71	159.33	467.74	-1202.2	689.45	184.48	-1136.1	580.01	180.53	-1201	601.2	204.64	-1137.3	666.86	155.62	-1164.2	504.23	196.91	-1131.2	518.13	326.37	-1236.6	380.86	192.92	-1192.9	280.71	210.16	-1248.1	307.52	202.25	-1178	356.34	198.42	-1275.8	109.75	240.88	-1258.5	102.32	332.94	-1349.5	78.023	296.28	-1338.9	52.365	325.6	-1352.3	52.653	265.84	-1182.8	43.529	201.48	-1139.9	36.877	308.13	-1091.1	51.817	246.26	-1185.7	1481.8	331.66	-1234.9	1215	310.61
116	0.47917	NaN	NaN	NaN	-1098.3	1424.4	477.9	-1095.7	1432.7	162.72	-1083.7	1735.3	322.71	-997.19	1023.4	421.36	-1017.6	1021.5	176.35	-1231.5	1031	364.44	-1228.2	1040	275.06	-1063.4	931.43	501.24	-1100.1	931.84	115.32	-1087.3	1093.8	473.23	-1130.4	1114.6	152.48	-1245.2	999.34	314.27	-986.73	691.66	488.67	-883.65	620.42	453.22	-960.43	603.18	466.85	-916.31	702.91	477.14	-882.58	544.48	452.44	-875.03	531.76	326.2	-900.16	360.35	457.96	-815.86	325.29	461.35	-875.75	287.86	451.83	-844.86	393.47	468.44	-782.47	116.36	448.41	-755.82	146.9	370.88	-819.93	72.926	384.86	-789.99	51.777	360.02	-810.4	44.23	421	-675.26	97.766	504.57	-616.91	132.16	413.7	-594.44	164.75	465.7	-1198.5	689.69	185.04	-1133	579.83	180.57	-1198.1	601.51	204.97	-1133.8	666.71	155.79	-1161.4	504.15	196.96	-1127.8	517.71	326.27	-1234.5	381.17	193.04	-1191.4	280.71	210.13	-1246.4	307.95	202.32	-1176	356.29	198.38	-1275.4	110.16	240.99	-1258.1	102.66	333	-1349.3	78.366	296.45	-1338.7	52.669	325.73	-1352.1	53.048	265.98	-1182.7	43.501	201.51	-1139.7	36.774	308.09	-1090.9	51.406	246.18	-1180.1	1481	331.89	-1229.4	1214.1	310.87
117	0.48333	NaN	NaN	NaN	-1092.8	1423.6	478.1	-1090.1	1431.9	162.95	-1078.4	1734.5	322.93	-991.34	1022.5	421.6	-1012	1020.8	176.59	-1225.6	1030.3	364.88	-1222.5	1039.5	275.51	-1057.8	930.38	501.36	-1095	931.41	115.44	-1081.5	1092.8	473.63	-1124.9	1114	152.87	-1239.5	998.8	314.67	-982.15	690.27	488.68	-879.39	618.62	453.21	-956.29	601.73	466.61	-911.65	701.16	477.22	-878.06	543.5	452.19	-871.31	530.43	325.46	-891.66	359.31	458.16	-806.67	325.91	460.81	-865.84	287.25	452.06	-836.97	393.53	467.92	-768.62	117.23	448.27	-743.46	148.24	370.48	-805.98	72.777	385.28	-775.73	52.248	360.17	-795.42	44.354	421.36	-660.53	101.15	503.42	-603.9	136.68	411.92	-581.69	170	463.55	-1194.7	689.9	185.6	-1129.8	579.63	180.61	-1195.1	601.79	205.3	-1130.2	666.55	155.96	-1158.6	504.04	197.02	-1124.3	517.26	326.19	-1232.3	381.48	193.15	-1189.8	280.71	210.1	-1244.6	308.38	202.39	-1173.9	356.22	198.33	-1274.9	110.59	241.09	-1257.6	103.02	333.05	-1349	78.756	296.59	-1338.6	53.017	325.86	-1352	53.477	266.12	-1182.6	43.473	201.54	-1139.6	36.681	308.03	-1090.7	51	246.09	-1174.5	1480.2	332.13	-1223.7	1213.3	311.16
118	0.4875	NaN	NaN	NaN	-1087.3	1422.8	478.32	-1084.6	1431.1	163.18	-1073	1733.8	323.15	-985.47	1021.5	421.85	-1006.4	1020.1	176.84	-1219.7	1029.6	365.33	-1216.8	1039	275.96	-1052.3	929.35	501.5	-1089.9	930.96	115.57	-1075.6	1091.9	474.02	-1119.3	1113.4	153.26	-1233.8	998.25	315.09	-977.44	688.93	488.72	-875	616.9	453.17	-952.01	600.35	466.39	-906.88	699.48	477.3	-873.42	542.58	451.95	-867.61	529.12	324.73	-883.28	358.36	458.37	-797.66	326.53	460.23	-856.15	286.73	452.29	-829.16	393.6	467.39	-755.27	118.15	448.07	-731.58	149.58	370.01	-792.57	72.723	385.62	-762.04	52.792	360.24	-781.01	44.585	421.63	-646.36	104.46	502.18	-591.45	141.04	410.06	-569.46	175.05	461.31	-1190.8	690.07	186.15	-1126.5	579.41	180.65	-1192.1	602.03	205.61	-1126.6	666.36	156.14	-1155.6	503.91	197.08	-1120.7	516.77	326.11	-1230	381.79	193.25	-1188.2	280.69	210.08	-1242.8	308.81	202.46	-1171.8	356.13	198.29	-1274.5	111.05	241.18	-1257.1	103.41	333.09	-1348.8	79.201	296.71	-1338.4	53.417	325.97	-1351.8	53.946	266.25	-1182.5	43.445	201.56	-1139.4	36.599	307.98	-1090.4	50.599	246.01	-1168.9	1479.4	332.39	-1218.1	1212.4	311.46
119	0.49167	NaN	NaN	NaN	-1081.8	1422	478.56	-1079	1430.3	163.43	-1067.6	1733	323.36	-979.59	1020.6	422.11	-1000.8	1019.3	177.1	-1213.7	1028.9	365.79	-1211	1038.4	276.43	-1046.7	928.35	501.67	-1084.8	930.49	115.71	-1069.7	1091	474.42	-1113.8	1112.8	153.66	-1228.1	997.69	315.52	-972.6	687.65	488.79	-870.47	615.27	453.11	-947.58	599.03	466.19	-901.97	697.88	477.39	-868.64	541.72	451.69	-863.9	527.84	324.01	-875.02	357.5	458.58	-788.85	327.13	459.63	-846.69	286.29	452.5	-821.46	393.68	466.85	-742.44	119.08	447.79	-720.2	150.88	369.47	-779.72	72.734	385.87	-748.93	53.375	360.21	-767.19	44.888	421.81	-632.79	107.66	500.84	-579.58	145.2	408.12	-557.77	179.84	459	-1186.8	690.19	186.7	-1123.2	579.16	180.7	-1189	602.22	205.92	-1122.9	666.14	156.33	-1152.5	503.75	197.15	-1117	516.25	326.05	-1227.6	382.1	193.34	-1186.5	280.67	210.07	-1240.9	309.24	202.53	-1169.6	356.04	198.26	-1274	111.55	241.26	-1256.6	103.82	333.13	-1348.6	79.707	296.82	-1338.3	53.876	326.08	-1351.7	54.463	266.36	-1182.4	43.419	201.58	-1139.2	36.527	307.91	-1090.2	50.203	245.92	-1163.3	1478.6	332.67	-1212.4	1211.5	311.77
120	0.49583	NaN	NaN	NaN	-1076.2	1421.2	478.82	-1073.5	1429.4	163.69	-1062.3	1732.3	323.57	-973.69	1019.6	422.38	-995.18	1018.6	177.36	-1207.7	1028.2	366.26	-1205.2	1037.9	276.9	-1041.1	927.39	501.87	-1079.7	929.99	115.86	-1063.8	1090.1	474.81	-1108.1	1112.2	154.05	-1222.4	997.13	315.96	-967.61	686.44	488.88	-865.78	613.75	453.02	-942.98	597.8	466	-896.94	696.39	477.46	-863.71	540.93	451.42	-860.14	526.58	323.32	-866.89	356.71	458.79	-780.24	327.69	459	-837.49	285.9	452.7	-813.86	393.75	466.3	-730.17	120	447.43	-709.34	152.12	368.87	-767.46	72.783	386.04	-736.45	53.966	360.09	-754.01	45.23	421.9	-619.85	110.7	499.42	-568.31	149.1	406.12	-546.63	184.33	456.63	-1182.8	690.26	187.24	-1119.7	578.88	180.77	-1185.8	602.37	206.21	-1119.1	665.89	156.53	-1149.4	503.56	197.23	-1113.2	515.71	326	-1225.1	382.41	193.43	-1184.8	280.63	210.07	-1238.9	309.66	202.6	-1167.2	355.93	198.24	-1273.5	112.08	241.33	-1256	104.26	333.15	-1348.3	80.282	296.9	-1338.1	54.399	326.18	-1351.5	55.034	266.46	-1182.3	43.394	201.59	-1139	36.466	307.85	-1090	49.811	245.82	-1157.6	1477.7	332.97	-1206.7	1210.6	312.11
121	0.5	NaN	NaN	NaN	-1070.7	1420.5	479.1	-1067.9	1428.6	163.96	-1056.9	1731.5	323.78	-967.79	1018.7	422.65	-989.57	1017.8	177.63	-1201.6	1027.5	366.74	-1199.4	1037.3	277.39	-1035.5	926.45	502.09	-1074.5	929.47	116.02	-1057.8	1089.2	475.2	-1102.5	1111.6	154.46	-1216.6	996.55	316.41	-962.47	685.3	488.99	-860.93	612.34	452.89	-938.2	596.65	465.83	-891.75	695.02	477.53	-858.61	540.2	451.13	-856.3	525.38	322.67	-858.92	355.99	458.99	-771.86	328.2	458.34	-828.55	285.55	452.86	-806.37	393.79	465.74	-718.49	120.87	446.99	-699.01	153.25	368.19	-755.82	72.84	386.1	-724.62	54.533	359.86	-741.49	45.575	421.88	-607.55	113.53	497.92	-557.63	152.71	404.07	-536.05	188.47	454.22	-1178.6	690.28	187.76	-1116.1	578.57	180.84	-1182.5	602.47	206.49	-1115.2	665.61	156.73	-1146.1	503.33	197.33	-1109.3	515.13	325.98	-1222.5	382.71	193.52	-1182.9	280.59	210.08	-1236.8	310.07	202.69	-1164.8	355.8	198.23	-1273	112.65	241.4	-1255.5	104.73	333.17	-1348.1	80.933	296.97	-1337.9	54.993	326.26	-1351.3	55.666	266.56	-1182.2	43.374	201.6	-1138.9	36.416	307.78	-1089.8	49.425	245.73	-1152	1476.9	333.29	-1200.9	1209.7	312.47
